<?xml version="1.0" standalone="no"?>
<!DOCTYPE svg PUBLIC "-//W3C//DTD SVG 20010904//EN"
 "http://www.w3.org/TR/2001/REC-SVG-20010904/DTD/svg10.dtd">
<svg version="1.0" xmlns="http://www.w3.org/2000/svg"
 width="512.000000pt" height="512.000000pt" viewBox="0 0 512.000000 512.000000"
 preserveAspectRatio="xMidYMid meet">
<metadata>
Created by potrace 1.11, written by Peter Selinger 2001-2013
</metadata>
<g transform="translate(0.000000,512.000000) scale(0.100000,-0.100000)"
fill="#000000" stroke="none">
<path d="M3988 5101 c-110 -35 -161 -88 -138 -144 10 -27 1088 -1102 1112
-1110 33 -11 77 14 103 57 50 86 67 206 41 301 -28 106 -48 130 -410 491 -239
240 -365 359 -396 375 -103 51 -212 62 -312 30z"/>
<path d="M3129 5099 c-32 -3 -88 -20 -125 -38 -60 -28 -94 -58 -291 -254 -193
-194 -226 -232 -253 -288 -61 -131 -61 -237 1 -369 28 -60 87 -122 827 -862
744 -744 801 -799 863 -828 128 -59 241 -59 368 0 58 27 94 59 287 253 187
188 226 232 252 287 57 117 58 253 3 365 -26 52 -135 164 -843 871 -710 708
-820 814 -865 833 -65 27 -151 38 -224 30z"/>
<path d="M2655 3426 c-16 -8 -240 -225 -497 -482 -506 -508 -490 -489 -473
-581 5 -33 48 -80 323 -355 275 -275 322 -318 355 -323 92 -17 72 -34 589 483
419 420 478 482 483 515 17 89 18 87 -313 421 -170 170 -321 314 -339 322 -40
17 -89 17 -128 0z"/>
<path d="M711 2700 c-24 -5 -73 -23 -109 -40 -57 -27 -95 -60 -289 -253 -196
-197 -226 -231 -254 -291 -36 -77 -48 -154 -37 -239 18 -134 -21 -89 862 -975
708 -710 819 -817 871 -842 113 -56 248 -56 363 0 57 28 98 64 289 254 194
193 226 230 253 288 59 126 59 239 0 367 -29 62 -84 119 -823 857 -436 436
-810 803 -832 816 -83 51 -208 76 -294 58z"/>
<path d="M105 1266 c-35 -15 -66 -67 -90 -151 -25 -85 -16 -186 25 -273 28
-61 63 -99 383 -418 240 -240 366 -359 397 -375 100 -49 193 -60 295 -33 118
30 179 88 155 147 -12 30 -1090 1104 -1115 1111 -11 3 -33 -1 -50 -8z"/>
</g>
</svg>
